# xmcd
#
# Track frame offsets:
#	150
#	19297
#	37811
#	53391
#	78395
#	96386
#	110529
#	133698
#	149845
#	168295
#
# Disc length: 2449 seconds
#
# Revision: 0
# Processed by: cddbd v1.5.2PL0 Copyright (c) Steve Scherf et al.
# Submitted via: audiograbber 1.83.01
#
DISCID=82098f0a
DTITLE=Johnny Copeland - Down On Bended Knee
DYEAR=2010
DGENRE=Blues
TTITLE0=When The Rain Starts Fallin'
TTITLE1=Cut Off My Right Arm
TTITLE2=Cut Off My Right Arm
TTITLE3=Kasavubu
TTITLE4=Blues Ain't Nothin'
TTITLE5=Devil's Hand
TTITLE6=Honky Tonkin'
TTITLE7=Claim Jumper
TTITLE8=Don't Stop By The Creek, Son
TTITLE9=Make My Home Where I Hang My Hat
EXTD=
EXTT0=
EXTT1=
EXTT2=
EXTT3=
EXTT4=
EXTT5=
EXTT6=
EXTT7=
EXTT8=
EXTT9=
PLAYORDER=
